<mxfile host="app.diagrams.net" agent="Mozilla/5.0 (Windows NT 10.0; Win64; x64; rv:143.0) Gecko/20100101 Firefox/143.0" version="28.2.5">
  <diagram name="Page-1" id="66WD4nrW2OyIELjLjrgN">
    <mxGraphModel dx="1705" dy="1863" grid="1" gridSize="10" guides="1" tooltips="1" connect="1" arrows="1" fold="1" page="1" pageScale="1" pageWidth="850" pageHeight="1100" math="0" shadow="0">
      <root>
        <mxCell id="0" />
        <mxCell id="1" parent="0" />
        <mxCell id="jil5e-YDrrWXRc0b1Tke-5" value="" style="shape=umlLifeline;perimeter=lifelinePerimeter;whiteSpace=wrap;html=1;container=1;dropTarget=0;collapsible=0;recursiveResize=0;outlineConnect=0;portConstraint=eastwest;newEdgeStyle={&quot;curved&quot;:0,&quot;rounded&quot;:0};participant=umlActor;size=60;" vertex="1" parent="1">
          <mxGeometry x="320" y="35" width="40" height="545" as="geometry" />
        </mxCell>
        <mxCell id="jil5e-YDrrWXRc0b1Tke-6" value="Front-end" style="shape=umlLifeline;perimeter=lifelinePerimeter;whiteSpace=wrap;html=1;container=1;dropTarget=0;collapsible=0;recursiveResize=0;outlineConnect=0;portConstraint=eastwest;newEdgeStyle={&quot;curved&quot;:0,&quot;rounded&quot;:0};participant=umlBoundary;size=90;" vertex="1" parent="1">
          <mxGeometry x="120" y="40" width="110" height="540" as="geometry" />
        </mxCell>
        <mxCell id="jil5e-YDrrWXRc0b1Tke-18" value="" style="html=1;points=[[0,0,0,0,5],[0,1,0,0,-5],[1,0,0,0,5],[1,1,0,0,-5]];perimeter=orthogonalPerimeter;outlineConnect=0;targetShapes=umlLifeline;portConstraint=eastwest;newEdgeStyle={&quot;curved&quot;:0,&quot;rounded&quot;:0};" vertex="1" parent="jil5e-YDrrWXRc0b1Tke-6">
          <mxGeometry x="50" y="130" width="10" height="100" as="geometry" />
        </mxCell>
        <mxCell id="jil5e-YDrrWXRc0b1Tke-30" value="" style="html=1;points=[[0,0,0,0,5],[0,1,0,0,-5],[1,0,0,0,5],[1,1,0,0,-5]];perimeter=orthogonalPerimeter;outlineConnect=0;targetShapes=umlLifeline;portConstraint=eastwest;newEdgeStyle={&quot;curved&quot;:0,&quot;rounded&quot;:0};" vertex="1" parent="jil5e-YDrrWXRc0b1Tke-6">
          <mxGeometry x="50" y="300" width="10" height="180" as="geometry" />
        </mxCell>
        <mxCell id="jil5e-YDrrWXRc0b1Tke-37" value="" style="html=1;points=[[0,0,0,0,5],[0,1,0,0,-5],[1,0,0,0,5],[1,1,0,0,-5]];perimeter=orthogonalPerimeter;outlineConnect=0;targetShapes=umlLifeline;portConstraint=eastwest;newEdgeStyle={&quot;curved&quot;:0,&quot;rounded&quot;:0};" vertex="1" parent="jil5e-YDrrWXRc0b1Tke-6">
          <mxGeometry x="50" y="240" width="10" height="40" as="geometry" />
        </mxCell>
        <mxCell id="jil5e-YDrrWXRc0b1Tke-38" value="5. Afișează automobilele()" style="html=1;align=left;spacingLeft=2;endArrow=block;rounded=0;edgeStyle=orthogonalEdgeStyle;curved=0;rounded=0;" edge="1" target="jil5e-YDrrWXRc0b1Tke-37" parent="jil5e-YDrrWXRc0b1Tke-6">
          <mxGeometry relative="1" as="geometry">
            <mxPoint x="60" y="220" as="sourcePoint" />
            <Array as="points">
              <mxPoint x="85" y="250" />
            </Array>
          </mxGeometry>
        </mxCell>
        <mxCell id="jil5e-YDrrWXRc0b1Tke-41" value="" style="html=1;points=[[0,0,0,0,5],[0,1,0,0,-5],[1,0,0,0,5],[1,1,0,0,-5]];perimeter=orthogonalPerimeter;outlineConnect=0;targetShapes=umlLifeline;portConstraint=eastwest;newEdgeStyle={&quot;curved&quot;:0,&quot;rounded&quot;:0};" vertex="1" parent="jil5e-YDrrWXRc0b1Tke-6">
          <mxGeometry x="50" y="490" width="10" height="20" as="geometry" />
        </mxCell>
        <mxCell id="jil5e-YDrrWXRc0b1Tke-40" value="12. Afișează automobilele()" style="html=1;align=left;spacingLeft=2;endArrow=block;rounded=0;edgeStyle=orthogonalEdgeStyle;curved=0;rounded=0;" edge="1" parent="jil5e-YDrrWXRc0b1Tke-6">
          <mxGeometry relative="1" as="geometry">
            <mxPoint x="60" y="470" as="sourcePoint" />
            <Array as="points">
              <mxPoint x="85" y="500" />
            </Array>
            <mxPoint x="60" y="500" as="targetPoint" />
          </mxGeometry>
        </mxCell>
        <mxCell id="jil5e-YDrrWXRc0b1Tke-7" value="Baza de date" style="shape=umlLifeline;perimeter=lifelinePerimeter;whiteSpace=wrap;html=1;container=1;dropTarget=0;collapsible=0;recursiveResize=0;outlineConnect=0;portConstraint=eastwest;newEdgeStyle={&quot;curved&quot;:0,&quot;rounded&quot;:0};participant=umlEntity;size=100;" vertex="1" parent="1">
          <mxGeometry x="620" y="40" width="100" height="540" as="geometry" />
        </mxCell>
        <mxCell id="jil5e-YDrrWXRc0b1Tke-21" value="" style="html=1;points=[[0,0,0,0,5],[0,1,0,0,-5],[1,0,0,0,5],[1,1,0,0,-5]];perimeter=orthogonalPerimeter;outlineConnect=0;targetShapes=umlLifeline;portConstraint=eastwest;newEdgeStyle={&quot;curved&quot;:0,&quot;rounded&quot;:0};" vertex="1" parent="jil5e-YDrrWXRc0b1Tke-7">
          <mxGeometry x="45" y="140" width="10" height="60" as="geometry" />
        </mxCell>
        <mxCell id="jil5e-YDrrWXRc0b1Tke-22" value="2. Cere lista completă&amp;nbsp;&lt;br&gt;de automobile()" style="html=1;verticalAlign=bottom;endArrow=block;curved=0;rounded=0;entryX=0;entryY=0;entryDx=0;entryDy=5;exitX=1;exitY=0;exitDx=0;exitDy=5;exitPerimeter=0;" edge="1" target="jil5e-YDrrWXRc0b1Tke-21" parent="jil5e-YDrrWXRc0b1Tke-7">
          <mxGeometry relative="1" as="geometry">
            <mxPoint x="-130" y="145" as="sourcePoint" />
          </mxGeometry>
        </mxCell>
        <mxCell id="jil5e-YDrrWXRc0b1Tke-23" value="3. Returneaza toate&amp;nbsp;&lt;br&gt;automobilele()" style="html=1;verticalAlign=bottom;endArrow=open;dashed=1;endSize=8;curved=0;rounded=0;exitX=0;exitY=1;exitDx=0;exitDy=-5;" edge="1" parent="jil5e-YDrrWXRc0b1Tke-7">
          <mxGeometry relative="1" as="geometry">
            <mxPoint x="-130" y="190" as="targetPoint" />
            <mxPoint x="45" y="190" as="sourcePoint" />
          </mxGeometry>
        </mxCell>
        <mxCell id="jil5e-YDrrWXRc0b1Tke-31" value="" style="html=1;points=[[0,0,0,0,5],[0,1,0,0,-5],[1,0,0,0,5],[1,1,0,0,-5]];perimeter=orthogonalPerimeter;outlineConnect=0;targetShapes=umlLifeline;portConstraint=eastwest;newEdgeStyle={&quot;curved&quot;:0,&quot;rounded&quot;:0};" vertex="1" parent="jil5e-YDrrWXRc0b1Tke-7">
          <mxGeometry x="45" y="380" width="10" height="60" as="geometry" />
        </mxCell>
        <mxCell id="jil5e-YDrrWXRc0b1Tke-8" value="Serverul" style="shape=umlLifeline;perimeter=lifelinePerimeter;whiteSpace=wrap;html=1;container=1;dropTarget=0;collapsible=0;recursiveResize=0;outlineConnect=0;portConstraint=eastwest;newEdgeStyle={&quot;curved&quot;:0,&quot;rounded&quot;:0};participant=umlControl;size=100;" vertex="1" parent="1">
          <mxGeometry x="440" y="40" width="90" height="540" as="geometry" />
        </mxCell>
        <mxCell id="jil5e-YDrrWXRc0b1Tke-19" value="" style="html=1;points=[[0,0,0,0,5],[0,1,0,0,-5],[1,0,0,0,5],[1,1,0,0,-5]];perimeter=orthogonalPerimeter;outlineConnect=0;targetShapes=umlLifeline;portConstraint=eastwest;newEdgeStyle={&quot;curved&quot;:0,&quot;rounded&quot;:0};" vertex="1" parent="jil5e-YDrrWXRc0b1Tke-8">
          <mxGeometry x="40" y="130" width="10" height="90" as="geometry" />
        </mxCell>
        <mxCell id="jil5e-YDrrWXRc0b1Tke-27" value="" style="html=1;points=[[0,0,0,0,5],[0,1,0,0,-5],[1,0,0,0,5],[1,1,0,0,-5]];perimeter=orthogonalPerimeter;outlineConnect=0;targetShapes=umlLifeline;portConstraint=eastwest;newEdgeStyle={&quot;curved&quot;:0,&quot;rounded&quot;:0};" vertex="1" parent="jil5e-YDrrWXRc0b1Tke-8">
          <mxGeometry x="40" y="300" width="10" height="170" as="geometry" />
        </mxCell>
        <mxCell id="jil5e-YDrrWXRc0b1Tke-20" value="1. Cere automobile()" style="html=1;verticalAlign=bottom;startArrow=oval;endArrow=block;startSize=8;curved=0;rounded=0;entryX=0;entryY=0;entryDx=0;entryDy=5;exitX=1;exitY=0;exitDx=0;exitDy=5;exitPerimeter=0;" edge="1" target="jil5e-YDrrWXRc0b1Tke-19" parent="1" source="jil5e-YDrrWXRc0b1Tke-18">
          <mxGeometry relative="1" as="geometry">
            <mxPoint x="410" y="175" as="sourcePoint" />
          </mxGeometry>
        </mxCell>
        <mxCell id="jil5e-YDrrWXRc0b1Tke-25" value="4. Returneaza lista&amp;nbsp;&lt;br&gt;de automobile()" style="html=1;verticalAlign=bottom;endArrow=open;dashed=1;endSize=8;curved=0;rounded=0;" edge="1" parent="1">
          <mxGeometry relative="1" as="geometry">
            <mxPoint x="480" y="250" as="sourcePoint" />
            <mxPoint x="180" y="250" as="targetPoint" />
            <Array as="points">
              <mxPoint x="390" y="250" />
            </Array>
          </mxGeometry>
        </mxCell>
        <mxCell id="jil5e-YDrrWXRc0b1Tke-26" value="6. Aplică filtre()" style="html=1;verticalAlign=bottom;startArrow=circle;startFill=1;endArrow=open;startSize=6;endSize=8;curved=0;rounded=0;" edge="1" parent="1">
          <mxGeometry width="80" relative="1" as="geometry">
            <mxPoint x="350.31034482758616" y="310" as="sourcePoint" />
            <mxPoint x="180" y="310" as="targetPoint" />
          </mxGeometry>
        </mxCell>
        <mxCell id="jil5e-YDrrWXRc0b1Tke-28" value="7. Cere lista filtrată&amp;nbsp;&lt;br&gt;de automobile()" style="html=1;verticalAlign=bottom;endArrow=block;curved=0;rounded=0;" edge="1" parent="1">
          <mxGeometry x="-0.5333" relative="1" as="geometry">
            <mxPoint x="180" y="350" as="sourcePoint" />
            <mxPoint x="480" y="350" as="targetPoint" />
            <mxPoint as="offset" />
          </mxGeometry>
        </mxCell>
        <mxCell id="jil5e-YDrrWXRc0b1Tke-32" value="" style="html=1;verticalAlign=bottom;endArrow=block;curved=0;rounded=0;entryX=0;entryY=0;entryDx=0;entryDy=5;" edge="1" parent="1">
          <mxGeometry relative="1" as="geometry">
            <mxPoint x="490" y="430" as="sourcePoint" />
            <mxPoint x="665" y="430" as="targetPoint" />
          </mxGeometry>
        </mxCell>
        <mxCell id="jil5e-YDrrWXRc0b1Tke-36" value="9. Cere lista de automobile&lt;br&gt;pe baza la SQL()" style="edgeLabel;html=1;align=center;verticalAlign=middle;resizable=0;points=[];" vertex="1" connectable="0" parent="jil5e-YDrrWXRc0b1Tke-32">
          <mxGeometry x="0.2849" y="2" relative="1" as="geometry">
            <mxPoint x="-33" y="-13" as="offset" />
          </mxGeometry>
        </mxCell>
        <mxCell id="jil5e-YDrrWXRc0b1Tke-33" value="&lt;div&gt;10. Returnează lista&amp;nbsp;&lt;/div&gt;&lt;div&gt;de autovehicule()&lt;/div&gt;" style="html=1;verticalAlign=bottom;endArrow=open;dashed=1;endSize=8;curved=0;rounded=0;" edge="1" parent="1">
          <mxGeometry relative="1" as="geometry">
            <mxPoint x="490" y="470" as="targetPoint" />
            <mxPoint x="665" y="470" as="sourcePoint" />
          </mxGeometry>
        </mxCell>
        <mxCell id="jil5e-YDrrWXRc0b1Tke-35" value="8. Generează o comandă&amp;nbsp;&lt;br&gt;SQL după filtre()" style="html=1;align=left;spacingLeft=2;endArrow=block;rounded=0;edgeStyle=orthogonalEdgeStyle;curved=0;rounded=0;" edge="1" parent="1">
          <mxGeometry relative="1" as="geometry">
            <mxPoint x="490" y="360" as="sourcePoint" />
            <Array as="points">
              <mxPoint x="520" y="360" />
              <mxPoint x="520" y="390" />
            </Array>
            <mxPoint x="490" y="390" as="targetPoint" />
          </mxGeometry>
        </mxCell>
        <mxCell id="jil5e-YDrrWXRc0b1Tke-39" value="&lt;div&gt;11. Returnează lista&amp;nbsp;&lt;/div&gt;&lt;div&gt;de autovehicule()&lt;/div&gt;" style="html=1;verticalAlign=bottom;endArrow=open;dashed=1;endSize=8;curved=0;rounded=0;" edge="1" parent="1">
          <mxGeometry x="-0.5333" relative="1" as="geometry">
            <mxPoint x="180" y="490" as="targetPoint" />
            <mxPoint x="480" y="490" as="sourcePoint" />
            <mxPoint as="offset" />
          </mxGeometry>
        </mxCell>
        <mxCell id="jil5e-YDrrWXRc0b1Tke-42" value="&lt;p style=&quot;margin:0px;margin-top:4px;text-align:center;&quot;&gt;&lt;b&gt;Car&lt;/b&gt;&lt;/p&gt;&lt;hr size=&quot;1&quot; style=&quot;border-style:solid;&quot;&gt;&lt;p style=&quot;margin:0px;margin-left:4px;&quot;&gt;+ id: String&lt;/p&gt;&lt;p style=&quot;margin:0px;margin-left:4px;&quot;&gt;+&amp;nbsp;city_mpg: Int&lt;/p&gt;&lt;p style=&quot;margin:0px;margin-left:4px;&quot;&gt;+&amp;nbsp;class: String&lt;/p&gt;&lt;p style=&quot;margin:0px;margin-left:4px;&quot;&gt;+&amp;nbsp;combination_mpg: Int&lt;/p&gt;&lt;p style=&quot;margin:0px;margin-left:4px;&quot;&gt;+&amp;nbsp;cylinders: Int&lt;/p&gt;&lt;p style=&quot;margin:0px;margin-left:4px;&quot;&gt;+&amp;nbsp;displacement: Float&lt;/p&gt;&lt;p style=&quot;margin:0px;margin-left:4px;&quot;&gt;+&amp;nbsp;drive: String&lt;/p&gt;&lt;p style=&quot;margin:0px;margin-left:4px;&quot;&gt;+&amp;nbsp;fuel_type: String&lt;/p&gt;&lt;p style=&quot;margin:0px;margin-left:4px;&quot;&gt;+&amp;nbsp;highway_mpg: Int&lt;/p&gt;&lt;p style=&quot;margin:0px;margin-left:4px;&quot;&gt;+&amp;nbsp;make: String&lt;/p&gt;&lt;p style=&quot;margin:0px;margin-left:4px;&quot;&gt;+&amp;nbsp;model: String&lt;/p&gt;&lt;p style=&quot;margin:0px;margin-left:4px;&quot;&gt;+&amp;nbsp;transmission: String&lt;/p&gt;&lt;p style=&quot;margin:0px;margin-left:4px;&quot;&gt;+&amp;nbsp;year: Int&lt;/p&gt;&lt;p style=&quot;margin:0px;margin-left:4px;&quot;&gt;+&amp;nbsp;images: Image[]&lt;/p&gt;" style="verticalAlign=top;align=left;overflow=fill;html=1;whiteSpace=wrap;" vertex="1" parent="1">
          <mxGeometry x="110" y="710" width="160" height="240" as="geometry" />
        </mxCell>
        <mxCell id="jil5e-YDrrWXRc0b1Tke-43" value="&lt;p style=&quot;margin:0px;margin-top:4px;text-align:center;&quot;&gt;&lt;b&gt;Image&lt;/b&gt;&lt;/p&gt;&lt;hr size=&quot;1&quot; style=&quot;border-style:solid;&quot;&gt;&lt;p style=&quot;margin:0px;margin-left:4px;&quot;&gt;+ id: String&lt;/p&gt;&lt;p style=&quot;margin:0px;margin-left:4px;&quot;&gt;+ url: String&lt;/p&gt;" style="verticalAlign=top;align=left;overflow=fill;html=1;whiteSpace=wrap;" vertex="1" parent="1">
          <mxGeometry x="370" y="710" width="160" height="70" as="geometry" />
        </mxCell>
        <mxCell id="jil5e-YDrrWXRc0b1Tke-44" value="1" style="endArrow=none;html=1;endSize=12;startArrow=diamondThin;startSize=14;startFill=0;edgeStyle=orthogonalEdgeStyle;align=left;verticalAlign=bottom;rounded=0;" edge="1" parent="1">
          <mxGeometry x="-1" y="3" relative="1" as="geometry">
            <mxPoint x="270" y="760" as="sourcePoint" />
            <mxPoint x="370" y="760" as="targetPoint" />
          </mxGeometry>
        </mxCell>
        <mxCell id="jil5e-YDrrWXRc0b1Tke-46" value="1..*" style="edgeLabel;html=1;align=center;verticalAlign=middle;resizable=0;points=[];" vertex="1" connectable="0" parent="jil5e-YDrrWXRc0b1Tke-44">
          <mxGeometry x="0.8583" y="-1" relative="1" as="geometry">
            <mxPoint x="-9" y="-11" as="offset" />
          </mxGeometry>
        </mxCell>
      </root>
    </mxGraphModel>
  </diagram>
</mxfile>
